<svg width="160" height="160" viewBox="0 0 160 160" xmlns="http://www.w3.org/2000/svg"><title>featured</title><g fill="none" fill-rule="evenodd"><path d="M160 80c0 44.183-35.817 80-80 80S0 124.183 0 80 35.817 0 80 0s80 35.817 80 80" fill="#161B2A"/><path d="M80 150.759c33.368 0 61.397-23.225 68.818-54.354h1.837c-7.457 32.125-36.294 56.144-70.655 56.144-34.36 0-63.198-24.02-70.655-56.144h1.837c7.421 31.129 35.45 54.354 68.818 54.354zM80 9.242c-33.368 0-61.397 23.225-68.818 54.353H9.345C16.802 31.471 45.639 7.451 80 7.451c34.36 0 63.198 24.02 70.655 56.144h-1.837C141.397 32.467 113.368 9.242 80 9.242zm-65.627 71.41v3.754c.238.028.496.048.776.063.28.014.588.02.923.02.978 0 1.768-.139 2.369-.419.6-.279.901-.796.901-1.55 0-.672-.251-1.15-.754-1.437-.503-.287-1.223-.43-2.16-.43h-2.055zm0-2.494h1.594c1.006 0 1.726-.13 2.16-.388.433-.259.65-.674.65-1.248 0-.587-.224-.999-.672-1.236-.447-.238-1.104-.357-1.97-.357-.28 0-.58.003-.902.01a9.818 9.818 0 0 0-.86.053v3.166zm1.656 9.016c-.796 0-1.59-.024-2.379-.074a16.709 16.709 0 0 1-2.464-.346v-14.09c.671-.126 1.405-.22 2.202-.282a28.236 28.236 0 0 1 2.222-.096c.923 0 1.772.067 2.547.2.776.133 1.444.36 2.004.681.558.322.996.745 1.31 1.269.314.524.471 1.17.471 1.94 0 1.16-.559 2.075-1.677 2.746.923.35 1.552.825 1.888 1.426.335.602.503 1.28.503 2.034 0 1.524-.556 2.67-1.667 3.438-1.112.769-2.765 1.154-4.96 1.154zm16.984-.566c-.53.153-1.216.297-2.054.43-.84.132-1.72.199-2.643.199-.936 0-1.716-.126-2.337-.378-.623-.251-1.115-.604-1.479-1.06a4.13 4.13 0 0 1-.776-1.624 8.747 8.747 0 0 1-.23-2.076v-6.142h3.124v5.765c0 1.006.133 1.734.398 2.18.266.448.762.671 1.49.671.222 0 .46-.01.712-.03.252-.022.475-.046.671-.074v-8.512h3.124v10.65zm4.634-1.867c.573 0 .978-.055 1.216-.168.237-.112.357-.328.357-.65 0-.251-.155-.47-.462-.66-.308-.189-.776-.402-1.405-.64-.49-.18-.933-.37-1.33-.565a3.967 3.967 0 0 1-1.018-.702 2.83 2.83 0 0 1-.65-.976c-.155-.377-.23-.831-.23-1.363 0-1.034.383-1.852 1.153-2.453.768-.601 1.823-.902 3.166-.902.67 0 1.313.06 1.928.179.616.119 1.104.248 1.468.388l-.544 2.432c-.364-.126-.76-.237-1.185-.336a6.462 6.462 0 0 0-1.437-.147c-.978 0-1.467.273-1.467.819 0 .125.02.237.062.335a.721.721 0 0 0 .252.283c.126.091.297.19.514.294.216.107.493.223.828.35.685.253 1.25.503 1.698.75.447.247.8.513 1.06.799.258.285.44.603.544.951.105.35.158.754.158 1.214 0 1.088-.41 1.91-1.227 2.468-.818.558-1.975.837-3.47.837-.98 0-1.793-.084-2.443-.252-.65-.167-1.1-.306-1.352-.418l.524-2.538c.531.21 1.076.375 1.635.493.56.12 1.111.178 1.657.178zm5.535 2.244V75.956h3.124v11.029h-3.124zM46.6 72.769c0 .573-.186 1.024-.556 1.353-.37.328-.807.492-1.31.492-.504 0-.94-.164-1.31-.492-.371-.33-.557-.78-.557-1.353s.186-1.023.556-1.352a1.91 1.91 0 0 1 1.31-.493c.504 0 .94.164 1.311.493.37.329.556.779.556 1.352zm1.173 3.565c.532-.154 1.216-.297 2.055-.43.839-.133 1.72-.2 2.642-.2.937 0 1.716.123 2.338.367.622.245 1.115.591 1.478 1.039.363.447.622.978.776 1.592.154.616.23 1.3.23 2.056v6.227H54.17v-5.85c0-1.006-.133-1.719-.399-2.138-.265-.42-.762-.63-1.489-.63a10.89 10.89 0 0 0-1.384.105v8.513h-3.124V76.334zm17.697 4.025a3.242 3.242 0 0 0-.137-.775 1.948 1.948 0 0 0-.356-.671 1.898 1.898 0 0 0-.608-.483c-.245-.125-.549-.189-.912-.189-.35 0-.65.06-.901.179-.252.119-.462.276-.63.472a2.125 2.125 0 0 0-.388.681c-.09.259-.157.52-.2.786h4.132zm-7.338 1.196c0-.98.15-1.835.45-2.569.3-.734.695-1.345 1.185-1.835a4.94 4.94 0 0 1 1.687-1.111 5.294 5.294 0 0 1 1.96-.378c1.566 0 2.803.48 3.712 1.437.909.958 1.363 2.366 1.363 4.225 0 .181-.007.38-.02.597-.015.217-.03.41-.043.576h-7.087c.07.644.37 1.154.901 1.53.532.38 1.245.567 2.14.567a9.04 9.04 0 0 0 1.688-.157c.552-.104 1.002-.234 1.352-.388l.419 2.538a4.418 4.418 0 0 1-.67.251c-.28.084-.592.157-.933.22-.344.063-.71.115-1.102.158-.391.042-.782.062-1.174.062-.992 0-1.856-.146-2.59-.44-.734-.293-1.342-.695-1.823-1.205a4.774 4.774 0 0 1-1.07-1.814 7.191 7.191 0 0 1-.345-2.264zm14.467 3.186c.573 0 .978-.055 1.216-.168.237-.112.356-.328.356-.65 0-.251-.154-.47-.461-.66-.308-.189-.776-.402-1.405-.64-.49-.18-.933-.37-1.331-.565a3.972 3.972 0 0 1-1.018-.702 2.84 2.84 0 0 1-.65-.976c-.154-.377-.23-.831-.23-1.363 0-1.034.384-1.852 1.153-2.453.769-.601 1.824-.902 3.167-.902.67 0 1.313.06 1.928.179.616.119 1.104.248 1.468.388l-.545 2.432a11.748 11.748 0 0 0-1.184-.336 6.462 6.462 0 0 0-1.437-.147c-.978 0-1.468.273-1.468.819 0 .125.022.237.063.335a.712.712 0 0 0 .251.283c.127.091.297.19.515.294.216.107.493.223.828.35.685.253 1.25.503 1.698.75.447.247.8.513 1.059.799.259.285.44.603.545.951.105.35.158.754.158 1.214 0 1.088-.41 1.91-1.227 2.468-.818.558-1.975.837-3.47.837-.98 0-1.794-.084-2.443-.252-.65-.167-1.101-.306-1.352-.418l.524-2.538c.531.21 1.076.375 1.635.493.56.12 1.111.178 1.657.178zm8.701 0c.573 0 .978-.055 1.217-.168.236-.112.356-.328.356-.65 0-.251-.155-.47-.462-.66-.308-.189-.776-.402-1.405-.64-.49-.18-.933-.37-1.33-.565a3.986 3.986 0 0 1-1.018-.702 2.84 2.84 0 0 1-.65-.976c-.154-.377-.23-.831-.23-1.363 0-1.034.384-1.852 1.152-2.453.77-.601 1.824-.902 3.167-.902.67 0 1.313.06 1.929.179.615.119 1.104.248 1.467.388l-.544 2.432c-.365-.126-.76-.237-1.186-.336a6.45 6.45 0 0 0-1.436-.147c-.978 0-1.468.273-1.468.819 0 .125.022.237.063.335a.715.715 0 0 0 .252.283c.126.091.297.19.513.294.218.107.494.223.83.35.684.253 1.25.503 1.697.75.448.247.8.513 1.06.799.257.285.44.603.544.951.105.35.158.754.158 1.214 0 1.088-.41 1.91-1.226 2.468-.819.558-1.976.837-3.47.837-.98 0-1.794-.084-2.444-.252-.65-.167-1.1-.306-1.352-.418l.524-2.538c.531.21 1.076.375 1.635.493.56.12 1.111.178 1.657.178zm10.169.86c.629 0 1.19-.182 1.687-.545a4.78 4.78 0 0 0 1.26-1.394 7.16 7.16 0 0 0 .785-1.877 7.76 7.76 0 0 0 .273-1.992c0-.713-.155-1.279-.461-1.699-.308-.419-.84-.628-1.594-.628-.63 0-1.193.182-1.688.545a4.753 4.753 0 0 0-1.258 1.394 7.14 7.14 0 0 0-.787 1.877 7.757 7.757 0 0 0-.272 1.992c0 .712.153 1.278.461 1.698.308.42.84.629 1.594.629zm-.335 1.657c-1.148 0-2.045-.34-2.695-1.017-.65-.679-.975-1.611-.975-2.8 0-.81.116-1.663.346-2.557.23-.895.598-1.72 1.101-2.475a6.229 6.229 0 0 1 1.95-1.866c.797-.49 1.76-.733 2.893-.733 1.146 0 2.044.339 2.695 1.016.65.678.974 1.612.974 2.8 0 .81-.115 1.663-.345 2.558a8.047 8.047 0 0 1-1.101 2.474 6.214 6.214 0 0 1-1.95 1.865c-.797.49-1.761.735-2.893.735zM101.7 76.082h3.649l-.378 1.635h-3.649l-1.677 6.92c-.168.712-.315 1.349-.44 1.908a13.38 13.38 0 0 1-.452 1.572c-.174.49-.404.961-.692 1.415-.285.454-.674.926-1.163 1.416l-1.719-.252c.42-.546.747-1.006.986-1.383a7.53 7.53 0 0 0 .596-1.154c.161-.392.301-.842.42-1.352.119-.51.276-1.17.472-1.982l2.328-9.728c.168-.7.38-1.322.639-1.867.259-.545.587-1.003.985-1.373.399-.37.87-.654 1.416-.849.544-.196 1.195-.294 1.95-.294.489 0 .954.05 1.394.147.44.098.772.203.996.314l-.776 1.552a4.14 4.14 0 0 0-.576-.21c-.273-.083-.675-.125-1.206-.125-.46 0-.853.066-1.174.198a2.332 2.332 0 0 0-.818.556 2.663 2.663 0 0 0-.534.86 8.016 8.016 0 0 0-.347 1.132l-.23.944zm9.257-.336c-.074.212-.18.499-.32.862-.141.363-.301.782-.481 1.258s-.38 1-.602 1.573a97.25 97.25 0 0 0-.676 1.801h4.156c-.224-.63-.439-1.232-.647-1.806-.209-.574-.407-1.1-.594-1.576s-.352-.895-.493-1.258a42.382 42.382 0 0 0-.343-.854zm3.93 11.239a60.33 60.33 0 0 0-.522-1.555l-.556-1.59h-5.675l-.552 1.594c-.184.532-.356 1.05-.515 1.55h-3.397a264.768 264.768 0 0 1 1.556-4.34c.49-1.327.972-2.578 1.441-3.753.47-1.174.933-2.289 1.388-3.344a73.745 73.745 0 0 1 1.42-3.093h3.1a111.113 111.113 0 0 1 2.813 6.437c.47 1.175.952 2.426 1.443 3.754.491 1.328 1.01 2.774 1.559 4.34h-3.504zm10.757-5.43c0-.965-.217-1.737-.65-2.317-.433-.58-1.076-.87-1.929-.87-.28 0-.538.01-.775.03a6.59 6.59 0 0 0-.588.074v5.64c.196.126.451.23.765.316.316.083.632.124.955.124 1.48 0 2.222-.999 2.222-2.997zm3.187-.084c0 .853-.104 1.629-.314 2.327-.21.7-.518 1.3-.922 1.803a4.151 4.151 0 0 1-1.51 1.174c-.602.28-1.294.42-2.076.42-.434 0-.84-.043-1.216-.126a5.824 5.824 0 0 1-1.091-.357v4.152h-3.123v-14.53c.279-.084.6-.165.964-.242.363-.076.744-.143 1.143-.199a23.3 23.3 0 0 1 1.215-.137 14.3 14.3 0 0 1 1.186-.052c.907 0 1.718.136 2.432.41a5.016 5.016 0 0 1 1.803 1.153c.489.496.863 1.1 1.121 1.813.259.713.388 1.51.388 2.39zm8.01.084c0-.965-.217-1.737-.65-2.317-.434-.58-1.077-.87-1.93-.87-.279 0-.537.01-.775.03-.238.022-.434.046-.587.074v5.64c.195.126.451.23.765.316.315.083.632.124.954.124 1.482 0 2.222-.999 2.222-2.997zm3.187-.084c0 .853-.105 1.629-.315 2.327-.21.7-.517 1.3-.922 1.803a4.155 4.155 0 0 1-1.51 1.174c-.601.28-1.293.42-2.076.42-.433 0-.839-.043-1.216-.126a5.817 5.817 0 0 1-1.09-.357v4.152h-3.124v-14.53c.28-.084.6-.165.964-.242.363-.076.745-.143 1.143-.199.398-.055.803-.101 1.216-.137.412-.034.807-.052 1.185-.052.908 0 1.719.136 2.432.41a5.01 5.01 0 0 1 1.803 1.153c.489.496.863 1.1 1.122 1.813.258.713.388 1.51.388 2.39zm4.11 3.27c.572 0 .978-.055 1.215-.168.237-.112.356-.328.356-.65 0-.251-.154-.47-.46-.66-.308-.189-.776-.402-1.405-.64-.49-.18-.934-.37-1.331-.565a3.986 3.986 0 0 1-1.018-.702 2.84 2.84 0 0 1-.65-.976c-.154-.377-.23-.831-.23-1.363 0-1.034.384-1.852 1.153-2.453.769-.601 1.824-.902 3.165-.902.672 0 1.315.06 1.93.179s1.104.248 1.467.388l-.545 2.432a11.705 11.705 0 0 0-1.184-.336 6.455 6.455 0 0 0-1.436-.147c-.979 0-1.468.273-1.468.819 0 .125.021.237.062.335a.721.721 0 0 0 .252.283c.126.091.297.19.514.294.216.107.493.223.828.35.685.253 1.25.503 1.699.75.447.247.8.513 1.058.799.259.285.44.603.545.951.105.35.158.754.158 1.214 0 1.088-.41 1.91-1.227 2.468-.817.558-1.974.837-3.47.837-.979 0-1.793-.084-2.443-.252-.65-.167-1.1-.306-1.352-.418l.524-2.538c.532.21 1.076.375 1.636.493.559.12 1.11.178 1.656.178zM31.653 58.795V50.25h5.858v1.445h-4.133v2.023h3.567v1.445H33.38v3.632h-1.725zm8.474 0V50.25h6.335v1.445h-4.61v1.895h4.29v1.439h-4.29v2.326h4.773v1.44h-6.498zm13.683-3.38l-1.177-3.171-1.155 3.17h2.332zm3.176 3.38h-1.876l-.746-1.942H50.95l-.706 1.942h-1.83l3.329-8.545h1.824l3.42 8.545zm3.147 0v-7.1h-2.535V50.25h6.79v1.445h-2.53v7.1h-1.725zm6.55-8.545h1.725v4.628c0 .734.021 1.21.064 1.427.074.35.25.63.527.843.278.212.658.318 1.14.318.49 0 .859-.1 1.108-.3.248-.2.398-.446.448-.738.05-.292.076-.776.076-1.45V50.25h1.725v4.488c0 1.026-.047 1.75-.14 2.174a2.406 2.406 0 0 1-.516 1.072c-.25.292-.585.524-1.005.697-.42.172-.968.26-1.644.26-.816 0-1.435-.095-1.856-.284-.421-.188-.755-.433-1-.734a2.36 2.36 0 0 1-.484-.947c-.112-.49-.168-1.212-.168-2.168V50.25zm11.556 3.614h1.277c.827 0 1.344-.036 1.55-.105a.928.928 0 0 0 .484-.362c.116-.17.175-.385.175-.64 0-.289-.077-.52-.23-.697-.154-.177-.371-.29-.651-.336-.14-.019-.56-.028-1.258-.028H78.24v2.168zm-1.725 4.93V50.25h3.63c.914 0 1.578.077 1.992.23.414.153.744.427.994.819.248.393.372.841.372 1.346 0 .642-.188 1.17-.564 1.588-.378.419-.941.681-1.692.79.374.218.682.457.925.717.242.26.569.723.982 1.388l1.043 1.667h-2.063l-1.247-1.86c-.444-.664-.747-1.083-.91-1.255a1.318 1.318 0 0 0-.518-.356c-.184-.064-.472-.096-.87-.096h-.349v3.567h-1.725zm9.808 0V50.25h6.336v1.445h-4.61v1.895h4.29v1.439h-4.29v2.326h4.773v1.44h-6.499zm10.875-7.099v5.66h1.288c.481 0 .828-.027 1.043-.082.28-.07.512-.188.697-.355.184-.168.334-.442.452-.825.116-.383.173-.904.173-1.565 0-.66-.057-1.167-.173-1.522-.118-.353-.28-.628-.49-.827a1.633 1.633 0 0 0-.8-.402c-.24-.055-.712-.082-1.415-.082h-.775zm-1.725-1.445h3.153c.71 0 1.253.054 1.625.163.502.148.93.41 1.29.787.356.377.629.838.814 1.384.187.546.28 1.22.28 2.02 0 .703-.088 1.309-.261 1.818-.215.622-.52 1.125-.916 1.51-.3.291-.704.518-1.212.682-.381.12-.89.18-1.528.18h-3.245V50.25zm15.757 4.266c0 .968.223 1.701.67 2.2.446.5 1.014.75 1.702.75s1.252-.248 1.693-.744c.441-.495.661-1.238.661-2.229 0-.979-.214-1.71-.643-2.192-.43-.481-1-.722-1.71-.722-.713 0-1.285.244-1.72.731-.436.488-.653 1.223-.653 2.206zm-1.778.059c0-.87.13-1.601.391-2.192.194-.435.46-.826.795-1.171a3.327 3.327 0 0 1 1.105-.77c.532-.226 1.146-.338 1.841-.338 1.26 0 2.266.39 3.022 1.172.756.78 1.134 1.867 1.134 3.258 0 1.38-.375 2.458-1.125 3.238-.75.778-1.753 1.168-3.007 1.168-1.27 0-2.28-.388-3.03-1.163s-1.126-1.842-1.126-3.202zm10.846 4.22V50.25h1.679l3.497 5.706V50.25h1.603v8.545h-1.731l-3.445-5.572v5.572h-1.603z" fill="#FFFFFE"/><path fill="#32A7FF" d="M80 99.72816L84.44 113.39376 98.8088 113.39376 87.184 121.83936 91.624 135.50416 80 127.05856 68.376 135.50416 72.816 121.83936 61.192 113.39376 75.56 113.39376z"/></g></svg>