<?xml version="1.0" encoding="UTF-8"?>
<svg width="98px" height="98px" viewBox="0 0 98 98" version="1.1" xmlns="http://www.w3.org/2000/svg" xmlns:xlink="http://www.w3.org/1999/xlink">
    <!-- Generator: Sketch 51.1 (57501) - http://www.bohemiancoding.com/sketch -->
    <title>instagram</title>
    <desc>Created with Sketch.</desc>
    <defs></defs>
    <g id="UI-Collection" stroke="none" stroke-width="1" fill="none" fill-rule="evenodd">
        <g id="Artboard" transform="translate(-95.000000, -76.000000)" fill="#FFFFFF" fill-rule="nonzero">
            <path d="M128.330508,76 L159.669492,76 C171.259236,76 175.461957,77.2067329 179.698994,79.4727251 C183.936031,81.7387174 187.261283,85.0639688 189.527275,89.3010059 C191.793267,93.5380429 193,97.740764 193,109.330508 L193,140.669492 C193,152.259236 191.793267,156.461957 189.527275,160.698994 C187.261283,164.936031 183.936031,168.261283 179.698994,170.527275 C175.461957,172.793267 171.259236,174 159.669492,174 L128.330508,174 C116.740764,174 112.538043,172.793267 108.301006,170.527275 C104.063969,168.261283 100.738717,164.936031 98.4727251,160.698994 C96.2067329,156.461957 95,152.259236 95,140.669492 L95,109.330508 C95,97.740764 96.2067329,93.5380429 98.4727251,89.3010059 C100.738717,85.0639688 104.063969,81.7387174 108.301006,79.4727251 C112.538043,77.2067329 116.740764,76 128.330508,76 Z M128.330508,85 C119.122574,85 115.87856,85.6264479 112.545396,87.4090439 C109.876775,88.8362379 107.836238,90.8767748 106.409044,93.5453956 C104.626448,96.8785604 104,100.122574 104,109.330508 L104,140.669492 C104,149.877426 104.626448,153.12144 106.409044,156.454604 C107.836238,159.123225 109.876775,161.163762 112.545396,162.590956 C115.87856,164.373552 119.122574,165 128.330508,165 L159.669492,165 C168.877426,165 172.12144,164.373552 175.454604,162.590956 C178.123225,161.163762 180.163762,159.123225 181.590956,156.454604 C183.373552,153.12144 184,149.877426 184,140.669492 L184,109.330508 C184,100.122574 183.373552,96.8785604 181.590956,93.5453956 C180.163762,90.8767748 178.123225,88.8362379 175.454604,87.4090439 C172.12144,85.6264479 168.877426,85 159.669492,85 L128.330508,85 Z M144,150 C130.192881,150 119,138.807119 119,125 C119,111.192881 130.192881,100 144,100 C157.807119,100 169,111.192881 169,125 C169,138.807119 157.807119,150 144,150 Z M144,142 C153.388841,142 161,134.388841 161,125 C161,115.611159 153.388841,108 144,108 C134.611159,108 127,115.611159 127,125 C127,134.388841 134.611159,142 144,142 Z M170.5,104 C167.462434,104 165,101.537566 165,98.5 C165,95.4624339 167.462434,93 170.5,93 C173.537566,93 176,95.4624339 176,98.5 C176,101.537566 173.537566,104 170.5,104 Z" id="instagram"></path>
        </g>
    </g>
</svg>