<svg width="110" height="19" viewBox="0 0 110 19" xmlns="http://www.w3.org/2000/svg"><title>kolibri</title><defs><linearGradient x1="50%" y1="100%" x2="50%" y2="0%" id="a"><stop stop-color="#5D657C" offset="0%"/><stop stop-color="#868D9C" offset="100%"/></linearGradient></defs><path d="M540.692 833h6.667l-6.716 9.5 6.716 9.5-6.667-.03-3.939-5.583V852H531v-19h5.753v5.65l3.94-5.65zm15.293 0c5.324 0 9.64 4.246 9.64 9.485 0 5.238-4.316 9.484-9.64 9.484-5.324 0-9.64-4.246-9.64-9.484 0-5.239 4.316-9.485 9.64-9.485zm18.735 0v14.156h8.109V852H568.452v-19h6.268zm12.288 19v-19h5.975v19h-5.975zm48.017 0v-19H641v19h-5.975zm-23.826-14.25c0 2.399-1.808 4.381-4.156 4.703 2.348.322 4.156 2.304 4.156 4.703 0 2.624-2.161 4.75-4.827 4.75h-9.564V833h9.564c2.666 0 4.827 2.127 4.827 4.75zm18.75 0c0 2.623-2.161 4.75-4.827 4.75l6.708 9.5-6.708-.03-4.828-7.554v7.49h-5.726V833h10.554c2.666 0 4.827 2.127 4.827 4.75z" transform="translate(-531 -833)" fill="url(#a)" fill-rule="evenodd"/></svg>