<?xml version="1.0" encoding="UTF-8"?>
<svg width="13px" height="13px" viewBox="0 0 13 13" version="1.1" xmlns="http://www.w3.org/2000/svg" xmlns:xlink="http://www.w3.org/1999/xlink">
    <!-- Generator: sketchtool 43.1 (39012) - http://www.bohemiancoding.com/sketch -->
    <title>48EDCBE4-3D69-4D1C-9EE0-23E4827757CD</title>
    <desc>Created with sketchtool.</desc>
    <defs></defs>
    <g id="Page-1" stroke="none" stroke-width="1" fill="none" fill-rule="evenodd">
        <g id="Landing-Page---Mobile" transform="translate(-322.000000, -5072.000000)" fill="#FFFFFF">
            <g id="Group-3" transform="translate(213.000000, 5064.000000)">
                <g id="linkedin" transform="translate(100.000000, 0.000000)">
                    <path d="M12.2920802,20.4545455 L9.74642715,20.4545455 L9.74642715,12.2559475 L12.2920802,12.2559475 L12.2920802,20.4545455 L12.2920802,20.4545455 Z M11.0192537,11.1350585 C10.2053146,11.1350585 9.54545455,10.4739354 9.54545455,9.65843836 C9.54545455,8.84294131 10.2053146,8.18181818 11.0192537,8.18181818 C11.8331927,8.18181818 12.4930528,8.84294131 12.4930528,9.65843836 C12.4930528,10.4705795 11.8331927,11.1350585 11.0192537,11.1350585 L11.0192537,11.1350585 Z M21.8181818,20.4545455 L19.2758783,20.4545455 L19.2758783,16.467671 C19.2758783,15.5179357 19.2591306,14.2930122 17.9528087,14.2930122 C16.629739,14.2930122 16.4287664,15.3300022 16.4287664,16.3971959 L16.4287664,20.4545455 L13.8864629,20.4545455 L13.8864629,12.2559475 L16.3249305,12.2559475 L16.3249305,13.3768365 L16.358426,13.3768365 C16.6967299,12.7324931 17.5274166,12.0512342 18.7633982,12.0512342 C21.3358476,12.0512342 21.8114827,13.7493475 21.8114827,15.9575658 L21.8114827,20.4545455 L21.8181818,20.4545455 Z"></path>
                </g>
            </g>
        </g>
    </g>
</svg>