<svg width="60" height="48" viewBox="0 0 60 48" xmlns="http://www.w3.org/2000/svg"><title>nerbyte</title><defs><linearGradient x1="50%" y1="100%" x2="50%" y2="0%" id="a"><stop stop-color="#5D657C" offset="0%"/><stop stop-color="#868D9C" offset="100%"/></linearGradient></defs><path d="M347.112 857.917l2.87-.064-1.567 6.566-2.587-.073-1.472-2.511-1.07 2.584H341l.985-6.566 2.849.15 1.665 2.586.613-2.672zm6.11 5.063l3.319-.226.097 1.908-5.466-.194-.455-6.372 5.824-.55-.163 2.038-3.091-.194-.195 1.261 2.896-.42.227 1.779-3.026-.13.033 1.1zm9.273-2.75v-.84l-1.985.097.163 1.876 1.822-1.132zm3.058-1.713l-1.985 3.363 2.115 2.846-2.895-.064-1.887-2.07.065 2.07-3.026-.065-.586-6.76 7.093-.323 1.106 1.003zm5.019 3.37l2.773.2-.723-1.318-1.728-.04-.322 1.159zm2.653-4.754l-2.854.32.523 1.318 1.487-.28.844-1.358zm4.18 3.596l-.281 2.637-2.09 1.478-8.361-.24 1.246-4.914-1.246-4.675 8.722-.44 1.608 2.038-1.487 2.917 1.89 1.199zm4.663-.28l1.608-2.477 2.05 1.718-7.034 9.31-2.332-1.159 4.663-5.554-3.296-3.476 2.09-.8 2.25 2.438zm5.065-.28l-.764-1.997 7.838-.76-.322 2.238-2.25.36-.362 4.355-3.256.6.924-4.876-1.808.08zm7.798-2.037l5.868-.64-.04 2.158-3.417-.2-.04 1.199 2.814-.36.241 1.758-3.095-.16.08 1.08 3.537-.16.121 1.917-5.668-.12-.401-6.472zm-37.02-5.834l.843-15.823 5.025-.04 1.045 15.863h-6.914zm7.516-23.895l-3.779 4.675-3.979-4.555 3.859-4.195 3.899 4.075zm2.527 20.567l.844-15.823 5.024-.04 1.045 15.863h-6.913zM371.57 821l3.899 4.076-3.778 4.675-3.98-4.556 3.859-4.195zm6.373 31.298l.844-15.823 5.025-.04 1.045 15.863h-6.914zm7.517-23.895l-3.778 4.675-3.98-4.555 3.859-4.195 3.899 4.075z" transform="translate(-341 -821)" fill="url(#a)" fill-rule="evenodd"/></svg>