<svg width="74" height="23" viewBox="0 0 74 23" xmlns="http://www.w3.org/2000/svg"><title>tivola</title><defs><linearGradient x1="50%" y1="100%" x2="50%" y2="0%" id="a"><stop stop-color="#5D657C" offset="0%"/><stop stop-color="#868D9C" offset="100%"/></linearGradient></defs><path d="M497.27 845.943a5.021 5.021 0 0 0-1.048-3.195c-1.153-1.518-3.3-1.55-4.474-.051-1.513 1.93-1.482 4.917.081 6.803 1.167 1.406 3.115 1.325 4.167.106.875-1.015 1.284-2.184 1.275-3.663zm1.53-7.043c.787-.002 1.2.673 1.2 1.296v11.411c0 .846-.497 1.588-1.251 1.589-.754 0-1.115-.332-1.293-.852-.128-.376-.21-.389-.553-.138-.865.631-1.85.983-2.895.99-1.43.009-2.703-.515-3.744-1.53-.908-.883-1.497-1.948-1.866-3.177a8.358 8.358 0 0 1-.175-4.188c.465-2.178 1.582-3.944 3.67-4.915 1.735-.807 3.378-.586 4.931.5.095.066.19.131.287.193.023.015.054.015.135.035.07-.114.167-.236.227-.373.193-.445.54-.838 1.327-.84zm-21.655-1.19c1.324 1.109 2.217 2.53 2.703 4.176.412 1.395.468 2.82.106 4.268-.552 2.211-1.647 4.07-3.443 5.432-2.365 1.795-5.064 2.684-8.02 2.342-2.52-.292-4.636-1.492-6.268-3.506-.919-1.135-1.677-2.37-2.13-3.76-.43-1.32-.724-2.678-.466-4.086.181-.987.304-1.993.581-2.952.822-2.84 2.543-5.006 5-6.596a12.31 12.31 0 0 1 4.928-1.862c.584-.087 1.177-.106 1.765-.157a8.155 8.155 0 0 1 3.196.483c.468.17.905.488 1.284.823.259.228.344.593.092.951-.265.378-.601.602-1.06.522-.523-.09-1.038-.229-1.557-.345-.155-.035-.308-.084-.465-.096-1.33-.101-2.661-.082-3.95.277-1.494.416-2.874 1.092-4.086 2.094a9.632 9.632 0 0 0-3.026 4.37c-.528 1.542-.702 3.131-.306 4.741.65 2.644 2.078 4.71 4.482 6.002 1.13.607 2.385.794 3.646.723a14.324 14.324 0 0 0 2.806-.437c1-.262 1.83-.897 2.594-1.596a7.811 7.811 0 0 0 2.209-3.482c.506-1.613.328-3.166-.49-4.644-.845-1.526-2.049-2.657-3.658-3.304-1.584-.637-3.12-.451-4.552.453-1 .632-1.818 1.458-2.345 2.552-.46.954-.613 1.903-.228 2.943.47 1.27 1.245 2.245 2.416 2.886 1.87 1.022 4.38-.308 4.56-2.454.093-1.118-.787-2.489-2.103-2.218-.582.12-.84.66-.583 1.196.21.439.491.879.089 1.378-.266.33-.666.496-1.069.379-.801-.233-1.304-.894-1.387-1.808-.138-1.538.985-2.832 2.28-3.27 1.79-.604 3.655.584 4.459 1.934.405.682.615 1.416.657 2.19.055 1.034-.372 1.918-.93 2.758-.768 1.157-1.781 1.997-3.106 2.362-1.607.443-3.135.2-4.54-.748-1.085-.732-1.998-1.615-2.577-2.818-.802-1.669-.972-3.357-.232-5.105.68-1.605 1.67-2.942 3.13-3.898 1.397-.913 2.919-1.328 4.583-1.276 1.962.062 3.553.963 5.011 2.184zm-38.662-4.238c.672.087 1.018.807 1.051 1.334.03.455-.331 1.21-.955 1.374-.275.072-.565.12-.85.124-1.023.014-2.048.002-3.072.006-.496.002-.528.053-.528.552.004 2.467.002 4.935.002 7.402h.002c0 2.307.009 4.613-.007 6.92-.004.497.072 1.02-.287 1.465-.659.819-1.636.65-2.098-.166-.15-.266-.225-.6-.244-.91-.035-.552.003-1.109.003-1.663v-12.964c0-.635 0-.638-.622-.637-.995.001-1.993-.031-2.986.02-.906.047-1.892-.37-1.892-1.497 0-1.126 1.077-1.487 1.979-1.471 3.086.055 6.173.042 9.26.059.415.002.834-.002 1.244.052zm17.789 5.701c.862-.092 1.602.835 1.357 1.726-.156.57-.398 1.116-.598 1.673-.264.736-.519 1.474-.788 2.207-.4 1.086-.812 2.168-1.21 3.254-.364.994-.704 1.996-1.076 2.986a17.47 17.47 0 0 1-.664 1.546c-.201.41-.577.655-1.019.602a1.341 1.341 0 0 1-1.133-.895c-.44-1.182-.852-2.374-1.288-3.557-.545-1.48-1.106-2.954-1.654-4.432-.361-.975-.736-1.946-1.059-2.934-.198-.609-.244-1.23.242-1.77.537-.595 1.338-.6 1.761.085.33.533.542 1.144.774 1.734.324.823.623 1.656.924 2.488.298.828.582 1.661.88 2.489.175.484.367.962.551 1.442l.094.005c.165-.427.333-.852.494-1.28.497-1.326.995-2.652 1.484-3.982.286-.775.538-1.563.837-2.333.198-.51.476-.988 1.09-1.054zm27.877-5.932c.474.058.935.441 1.05.969.089.407.133.833.133 1.251.004 4.906-.002 9.812-.013 14.718-.002.638.004 1.285-.096 1.91-.128.8-.903 1.14-1.327 1.096-.665-.067-1.263-.685-1.261-1.385.005-2.876.002-5.753.002-8.63h-.003c0-2.774-.008-5.548.01-8.323.001-.319.089-.658.219-.95.243-.546.711-.726 1.286-.656zm-40.077 7.549c.022 1.78.01 3.559.01 5.338h-.002c0 1.692.01 3.384-.009 5.076-.004.387-.08.781-.18 1.156-.121.45-.666.819-1.121.825-.456.005-1.1-.422-1.197-.863-.093-.42-.116-.859-.145-1.291-.018-.26.018-.524.019-.787 0-3.165-.004-6.33.003-9.496 0-.288.046-.581.104-.864.1-.477.636-.913 1.123-.944.426-.026 1.043.331 1.178.746.115.354.212.734.217 1.104zm-1.232-7.448c.814.006 1.554.79 1.539 1.633-.015.828-.769 1.552-1.584 1.52-.841-.031-1.53-.756-1.516-1.592.015-.825.756-1.566 1.561-1.56z" transform="translate(-426 -831)" fill="url(#a)" fill-rule="evenodd"/></svg>