<svg width="246" height="160" viewBox="0 0 246 160" xmlns="http://www.w3.org/2000/svg"><title>top-aso-tools</title><g fill="none" fill-rule="evenodd"><path d="M47.119 0h150.802c16.384 0 22.325 1.705 28.315 4.907 5.99 3.201 10.69 7.9 13.894 13.886 3.204 5.986 4.91 11.924 4.91 28.299v65.816c0 16.375-1.706 22.313-4.91 28.3-3.203 5.986-7.904 10.684-13.894 13.885-5.99 3.202-11.931 4.907-28.315 4.907H47.119c-16.384 0-22.326-1.705-28.315-4.907-5.99-3.201-10.691-7.9-13.895-13.886C1.706 135.221 0 129.283 0 112.908V47.092c0-16.375 1.706-22.313 4.91-28.3 3.203-5.986 7.904-10.684 13.894-13.885C24.794 1.705 30.734 0 47.119 0z" fill="#161B2A" fill-rule="nonzero"/><path d="M46.784 7.347c-12.908 0-18.366 1.053-24.013 4.072-4.898 2.617-8.726 6.444-11.346 11.338-3.02 5.645-4.074 11.1-4.074 24v66.486c0 12.9 1.054 18.355 4.074 24 2.62 4.894 6.448 8.72 11.346 11.338 5.647 3.019 11.105 4.072 24.013 4.072h151.471c12.909 0 18.367-1.053 24.014-4.072 4.897-2.617 8.726-6.444 11.345-11.338 3.02-5.645 4.074-11.1 4.074-24V46.757c0-12.9-1.054-18.355-4.074-24-2.619-4.894-6.448-8.72-11.345-11.338-5.647-3.019-11.105-4.072-24.014-4.072H46.785zm0-2.449h151.471c14.564 0 19.845 1.515 25.17 4.361 5.324 2.846 9.503 7.022 12.35 12.344 2.847 5.32 4.364 10.599 4.364 25.154v66.486c0 14.555-1.517 19.833-4.364 25.154-2.847 5.322-7.026 9.498-12.35 12.344-5.325 2.846-10.606 4.361-25.17 4.361H46.785c-14.564 0-19.846-1.515-25.17-4.361-5.324-2.846-9.503-7.022-12.35-12.344-2.848-5.32-4.364-10.599-4.364-25.154V46.757c0-14.555 1.516-19.833 4.364-25.154 2.847-5.322 7.026-9.498 12.35-12.344s10.606-4.361 25.17-4.361zM61.37 24.23v3.524c.223.028.465.047.728.06.263.013.552.02.868.02.919 0 1.661-.131 2.225-.394.566-.263.848-.748.848-1.458 0-.63-.237-1.08-.71-1.348-.472-.27-1.149-.404-2.028-.404H61.37zm0-2.343h1.497c.946 0 1.622-.121 2.029-.364.407-.243.61-.634.61-1.172 0-.552-.21-.938-.63-1.162-.42-.223-1.037-.334-1.852-.334-.263 0-.545.003-.847.01a9.568 9.568 0 0 0-.807.048v2.974zm1.556 8.467a36.39 36.39 0 0 1-2.237-.068 15.906 15.906 0 0 1-2.315-.325V16.728c.631-.118 1.32-.207 2.07-.266a26.827 26.827 0 0 1 2.088-.09c.867 0 1.665.064 2.394.188.729.126 1.356.339 1.881.64.525.303.936.7 1.232 1.192.295.492.443 1.1.443 1.82 0 1.09-.526 1.95-1.576 2.58.867.33 1.458.775 1.773 1.34.315.564.473 1.2.473 1.91 0 1.43-.522 2.507-1.567 3.229-1.043.722-2.597 1.083-4.66 1.083zm15.959-.532c-.5.145-1.143.28-1.931.404-.788.125-1.616.187-2.482.187-.88 0-1.613-.118-2.197-.354-.585-.237-1.048-.568-1.389-.995a3.865 3.865 0 0 1-.73-1.526 8.2 8.2 0 0 1-.216-1.95V19.82h2.936v5.416c0 .944.124 1.627.374 2.048.249.42.716.63 1.399.63.21 0 .434-.01.67-.03.236-.02.447-.043.63-.069V19.82h2.936v10.003zm4.354-1.752c.538 0 .919-.052 1.143-.157.223-.106.335-.309.335-.611 0-.236-.145-.442-.433-.62-.29-.178-.73-.378-1.32-.601-.461-.17-.878-.347-1.252-.532a3.649 3.649 0 0 1-.955-.66 2.656 2.656 0 0 1-.611-.915c-.145-.354-.217-.781-.217-1.28 0-.97.361-1.739 1.083-2.304.723-.564 1.715-.846 2.976-.846.63 0 1.234.056 1.812.167.578.111 1.038.233 1.38.364l-.513 2.285c-.341-.12-.712-.224-1.113-.316-.4-.091-.85-.138-1.35-.138-.92 0-1.378.256-1.378.769 0 .118.02.223.058.314.04.093.118.18.236.266.119.086.28.178.483.277.204.1.463.208.779.328a11.98 11.98 0 0 1 1.596.705c.42.23.751.481.995.75.243.268.414.566.512.894.098.327.147.707.147 1.139 0 1.022-.383 1.794-1.152 2.319-.769.524-1.855.785-3.26.785-.92 0-1.685-.078-2.296-.236-.61-.156-1.035-.289-1.27-.394l.492-2.382c.499.197 1.01.35 1.537.463a7.449 7.449 0 0 0 1.556.167zm5.202 2.107V19.82h2.935v10.357h-2.935zm3.21-13.35c0 .538-.174.96-.522 1.27a1.794 1.794 0 0 1-1.23.462c-.474 0-.884-.154-1.232-.463-.348-.308-.522-.731-.522-1.27 0-.538.174-.962.522-1.27a1.799 1.799 0 0 1 1.232-.463c.472 0 .882.155 1.23.463.348.308.522.732.522 1.27zm1.104 3.347c.499-.145 1.143-.28 1.93-.404a15.953 15.953 0 0 1 2.483-.187c.88 0 1.612.115 2.197.344.584.23 1.047.556 1.389.976.341.42.585.918.73 1.496.143.578.216 1.22.216 1.93v5.848h-2.936v-5.494c0-.945-.125-1.614-.375-2.009-.249-.393-.715-.59-1.398-.59a10.316 10.316 0 0 0-1.3.098v7.995h-2.936V20.174zm16.629 3.78a3.053 3.053 0 0 0-.129-.729 1.774 1.774 0 0 0-.907-1.082c-.229-.118-.514-.178-.856-.178-.328 0-.61.057-.847.168-.237.111-.434.26-.591.443a1.983 1.983 0 0 0-.365.64 4.16 4.16 0 0 0-.187.738h3.882zm-6.897 1.123c0-.919.142-1.723.424-2.413.282-.689.653-1.262 1.114-1.722.459-.46.987-.808 1.585-1.044a4.963 4.963 0 0 1 1.843-.354c1.47 0 2.633.45 3.487 1.348.854.9 1.28 2.223 1.28 3.968 0 .17-.006.358-.018.561a37.55 37.55 0 0 1-.04.542h-6.66a1.95 1.95 0 0 0 .847 1.438c.5.353 1.17.531 2.01.531.539 0 1.067-.05 1.586-.148.518-.098.942-.22 1.272-.364l.393 2.382c-.157.08-.368.158-.63.237a8.11 8.11 0 0 1-.878.207c-.321.058-.666.108-1.034.147-.367.04-.736.06-1.103.06-.933 0-1.744-.138-2.433-.414-.69-.276-1.261-.653-1.714-1.133a4.486 4.486 0 0 1-1.005-1.703 6.746 6.746 0 0 1-.326-2.126zm13.596 2.993c.537 0 .919-.052 1.142-.157.223-.106.335-.309.335-.611 0-.236-.144-.442-.433-.62-.29-.178-.729-.378-1.32-.601-.46-.17-.877-.347-1.252-.532a3.663 3.663 0 0 1-.955-.66 2.679 2.679 0 0 1-.611-.915c-.145-.354-.217-.781-.217-1.28 0-.97.362-1.739 1.084-2.304.722-.564 1.714-.846 2.975-.846.63 0 1.235.056 1.813.167.578.111 1.037.233 1.379.364l-.512 2.285a10.69 10.69 0 0 0-1.113-.316 6.081 6.081 0 0 0-1.35-.138c-.92 0-1.38.256-1.38.769 0 .118.02.223.06.314.039.093.118.18.235.266.12.086.28.178.484.277.203.1.463.208.778.328.644.238 1.176.473 1.596.705.42.23.751.481.995.75.243.268.414.566.512.894.098.327.148.707.148 1.139 0 1.022-.384 1.794-1.152 2.319-.77.524-1.856.785-3.26.785-.92 0-1.686-.078-2.297-.236-.61-.156-1.035-.289-1.27-.394l.492-2.382c.499.197 1.01.35 1.537.463a7.457 7.457 0 0 0 1.557.167zm8.176 0c.538 0 .92-.052 1.142-.157.223-.106.336-.309.336-.611 0-.236-.145-.442-.434-.62-.289-.178-.729-.378-1.32-.601-.46-.17-.877-.347-1.25-.532a3.649 3.649 0 0 1-.957-.66 2.656 2.656 0 0 1-.61-.915c-.145-.354-.217-.781-.217-1.28 0-.97.361-1.739 1.083-2.304.722-.564 1.715-.846 2.976-.846.63 0 1.234.056 1.812.167.579.111 1.038.233 1.379.364l-.512 2.285c-.342-.12-.712-.224-1.113-.316-.4-.091-.85-.138-1.35-.138-.919 0-1.38.256-1.38.769 0 .118.021.223.06.314.04.093.119.18.236.266.119.086.279.178.483.277.203.1.463.208.778.328a11.98 11.98 0 0 1 1.596.705c.42.23.752.481.995.75.243.268.414.566.512.894.1.327.148.707.148 1.139 0 1.022-.384 1.794-1.152 2.319-.769.524-1.856.785-3.26.785-.92 0-1.686-.078-2.296-.236-.611-.156-1.035-.289-1.271-.394l.493-2.382c.499.197 1.01.35 1.537.463a7.449 7.449 0 0 0 1.556.167zm9.556.807a2.61 2.61 0 0 0 1.585-.512 4.47 4.47 0 0 0 1.183-1.309c.32-.532.567-1.12.738-1.763.17-.643.256-1.266.256-1.87 0-.67-.144-1.2-.433-1.595-.288-.394-.788-.59-1.497-.59-.59 0-1.12.17-1.587.512-.466.34-.86.777-1.181 1.308a6.7 6.7 0 0 0-.74 1.763 7.282 7.282 0 0 0-.255 1.87c0 .67.143 1.201.433 1.595.289.394.789.59 1.498.59zm-.316 1.556c-1.077 0-1.92-.318-2.532-.955-.61-.637-.915-1.513-.915-2.629a9.6 9.6 0 0 1 .325-2.402 7.545 7.545 0 0 1 1.034-2.324 5.848 5.848 0 0 1 1.832-1.752c.749-.46 1.655-.69 2.719-.69 1.077 0 1.92.32 2.532.955.611.638.917 1.514.917 2.63a9.59 9.59 0 0 1-.326 2.401 7.54 7.54 0 0 1-1.034 2.324 5.86 5.86 0 0 1-1.833 1.753c-.749.459-1.655.689-2.72.689zm9.93-10.496h3.428l-.354 1.536h-3.429l-1.575 6.498c-.159.67-.297 1.267-.414 1.792-.119.525-.26 1.017-.424 1.477-.165.46-.381.902-.65 1.33-.27.426-.634.868-1.093 1.329l-1.616-.237c.393-.512.702-.945.925-1.299a7.08 7.08 0 0 0 .562-1.083c.151-.368.282-.791.395-1.27.11-.48.258-1.1.443-1.861l2.186-9.138c.159-.655.358-1.24.601-1.751.244-.512.552-.942.927-1.29a3.828 3.828 0 0 1 1.33-.798c.511-.183 1.122-.276 1.832-.276.46 0 .896.047 1.31.138.414.092.726.191.936.295l-.729 1.458a4.05 4.05 0 0 0-.542-.198c-.256-.078-.633-.117-1.133-.117-.433 0-.8.062-1.103.187a2.189 2.189 0 0 0-.769.521c-.21.223-.378.493-.502.808-.125.315-.233.67-.325 1.063l-.217.886zm8.698-.315c-.068.199-.168.468-.3.81-.132.34-.283.735-.451 1.181-.17.448-.357.94-.566 1.478-.209.537-.421 1.101-.636 1.69h3.905c-.209-.59-.411-1.157-.607-1.696a59.726 59.726 0 0 0-.558-1.479c-.177-.447-.331-.842-.464-1.183-.133-.34-.24-.607-.323-.8zm3.693 10.555a57.964 57.964 0 0 0-.49-1.46l-.522-1.493h-5.333l-.519 1.496c-.173.5-.334.986-.483 1.457h-3.192c.514-1.47 1.001-2.829 1.462-4.076a132.807 132.807 0 0 1 2.658-6.666c.429-.99.873-1.959 1.334-2.904h2.914c.448.945.89 1.913 1.326 2.904.436.991.875 2.039 1.317 3.14.442 1.104.894 2.278 1.356 3.526.461 1.247.95 2.606 1.464 4.076h-3.292zm10.109-5.1c0-.906-.203-1.631-.61-2.176-.408-.544-1.012-.817-1.813-.817-.263 0-.506.01-.729.03-.224.019-.407.042-.551.068v5.297c.183.118.423.216.718.296.296.078.594.117.896.117 1.392 0 2.089-.938 2.089-2.815zm2.995-.08a7.59 7.59 0 0 1-.295 2.187 4.905 4.905 0 0 1-.868 1.693c-.38.472-.853.84-1.418 1.103-.565.262-1.214.394-1.95.394a5.285 5.285 0 0 1-2.167-.452v3.898h-2.937V20.174c.263-.08.565-.154.906-.226.342-.073.7-.135 1.075-.188.374-.052.755-.095 1.142-.128.388-.032.759-.048 1.114-.048.854 0 1.615.127 2.285.382.67.257 1.235.618 1.694 1.084.46.467.812 1.034 1.055 1.703.243.67.364 1.418.364 2.244zm7.526.08c0-.906-.203-1.631-.61-2.176-.408-.544-1.012-.817-1.813-.817-.263 0-.506.01-.729.03-.224.019-.407.042-.552.068v5.297c.184.118.423.216.72.296.295.078.593.117.896.117 1.391 0 2.088-.938 2.088-2.815zm2.995-.08a7.59 7.59 0 0 1-.295 2.187 4.905 4.905 0 0 1-.868 1.693c-.38.472-.853.84-1.418 1.103-.565.262-1.214.394-1.951.394a5.283 5.283 0 0 1-2.167-.452v3.898h-2.936V20.174c.263-.08.566-.154.906-.226.342-.073.7-.135 1.074-.188.375-.052.756-.095 1.143-.128.388-.032.759-.048 1.114-.048.854 0 1.615.127 2.285.382.67.257 1.235.618 1.695 1.084a4.668 4.668 0 0 1 1.054 1.703c.243.67.364 1.418.364 2.244zm3.862 3.073c.538 0 .919-.052 1.142-.157.223-.106.335-.309.335-.611 0-.236-.144-.442-.433-.62-.29-.178-.729-.378-1.32-.601-.46-.17-.877-.347-1.252-.532a3.663 3.663 0 0 1-.955-.66 2.665 2.665 0 0 1-.61-.915c-.146-.354-.218-.781-.218-1.28 0-.97.362-1.739 1.084-2.304.722-.564 1.714-.846 2.975-.846.63 0 1.235.056 1.813.167.578.111 1.037.233 1.379.364l-.512 2.285a10.69 10.69 0 0 0-1.113-.316 6.081 6.081 0 0 0-1.35-.138c-.92 0-1.38.256-1.38.769 0 .118.021.223.06.314.039.093.118.18.236.266.119.086.279.178.483.277.203.1.463.208.778.328.644.238 1.176.473 1.596.705.42.23.751.481.995.75.243.268.414.566.512.894.098.327.148.707.148 1.139 0 1.022-.384 1.794-1.152 2.319-.77.524-1.856.785-3.26.785-.92 0-1.686-.078-2.297-.236-.61-.156-1.035-.289-1.27-.394l.493-2.382c.498.197 1.01.35 1.536.463a7.457 7.457 0 0 0 1.557.167zM61.783 75.918h-4.234V62.66h-4.603v-3.422h13.44v3.422h-4.603v13.258zm8.28.3c-3.967 0-6.442-2.403-6.442-6.6 0-4.115 2.533-6.588 6.442-6.588 3.933 0 6.443 2.462 6.443 6.589 0 4.207-2.476 6.6-6.443 6.6zm0-3.005c1.4 0 2.29-1.283 2.29-3.583 0-2.266-.89-3.595-2.29-3.595-1.388 0-2.278 1.33-2.278 3.595 0 2.3.867 3.583 2.278 3.583zm14.619-10.068c3.18 0 5.031 2.37 5.031 6.485 0 4.104-1.839 6.473-4.973 6.473-1.85 0-3.239-.878-3.852-2.335h-.08v6.22H76.7V63.33h4.083v2.243h.081c.636-1.514 2.001-2.428 3.817-2.428zm-1.527 9.756c1.458 0 2.371-1.271 2.371-3.27 0-2-.925-3.284-2.37-3.284-1.435 0-2.36 1.295-2.372 3.283.012 2 .926 3.271 2.371 3.271zm21.223 3.017l-1.053-3.664h-5.459l-1.064 3.664h-4.326l5.61-16.68h5.193l5.61 16.68h-4.511zm-3.829-13.143l-1.862 6.427h3.805l-1.85-6.427h-.093zm16.25.37c3.18 0 5.031 2.37 5.031 6.485 0 4.104-1.839 6.473-4.973 6.473-1.85 0-3.239-.878-3.852-2.335h-.08v6.22h-4.107V63.33h4.083v2.243h.081c.636-1.514 2.001-2.428 3.817-2.428zm-1.527 9.756c1.458 0 2.371-1.271 2.371-3.27 0-2-.925-3.284-2.37-3.284-1.435 0-2.36 1.295-2.372 3.283.012 2 .925 3.271 2.371 3.271zm14.746-9.756c3.18 0 5.031 2.37 5.031 6.485 0 4.104-1.839 6.473-4.973 6.473-1.85 0-3.238-.878-3.851-2.335h-.081v6.22h-4.106V63.33h4.082v2.243h.081c.637-1.514 2.001-2.428 3.817-2.428zm-1.527 9.756c1.458 0 2.372-1.271 2.372-3.27 0-2-.926-3.284-2.372-3.284-1.434 0-2.359 1.295-2.37 3.283.011 2 .925 3.271 2.37 3.271zm9.715-1.814h4.036c.15 1.144 1.434 1.907 3.007 1.907 1.654 0 2.73-.74 2.73-1.746 0-.924-.706-1.375-2.602-1.768l-2.186-.428c-3.077-.59-4.662-2.254-4.662-4.785 0-3.237 2.776-5.318 6.64-5.318 4.175 0 6.638 2.023 6.685 5.156h-3.91c-.08-1.214-1.203-1.942-2.73-1.942-1.48 0-2.463.67-2.463 1.687 0 .902.74 1.4 2.487 1.757l2.163.405c3.296.636 4.776 2.127 4.776 4.762 0 3.318-2.74 5.433-7.043 5.433-4.257 0-6.882-1.884-6.928-5.12zM153.53 60.51h4.106v2.82h2.267v3.017h-2.267v5.283c0 .867.463 1.306 1.446 1.306.323 0 .566-.011.81-.058v2.913c-.394.081-.995.15-1.793.15-3.274 0-4.569-1.005-4.569-3.479v-6.115h-1.712V63.33h1.712v-2.82zm12.653 15.709c-3.968 0-6.443-2.404-6.443-6.6 0-4.116 2.533-6.59 6.443-6.59 3.932 0 6.442 2.463 6.442 6.59 0 4.207-2.475 6.6-6.442 6.6zm0-3.006c1.399 0 2.29-1.283 2.29-3.583 0-2.266-.891-3.595-2.29-3.595-1.388 0-2.279 1.33-2.279 3.595 0 2.3.867 3.583 2.279 3.583zm6.638 2.705V63.33h3.99v2.381h.081c.463-1.699 1.48-2.566 2.96-2.566.417 0 .764.058 1.042.162v3.491a3.668 3.668 0 0 0-1.307-.231c-1.723 0-2.66.97-2.66 2.728v6.623h-4.106zm13.878-9.975c-1.26 0-2.197.936-2.301 2.242h4.58c-.07-1.34-.983-2.242-2.279-2.242zm2.371 5.999h3.701c-.393 2.6-2.706 4.277-6.002 4.277-4.014 0-6.408-2.462-6.408-6.531 0-4.069 2.417-6.658 6.269-6.658 3.794 0 6.21 2.485 6.21 6.334v1.156h-8.5v.254c0 1.503 1.006 2.544 2.487 2.544 1.098 0 1.954-.52 2.243-1.376zM43.044 84.841c4.88 0 7.95 3.203 7.95 8.337s-3.07 8.326-7.95 8.326c-4.891 0-7.962-3.192-7.962-8.326s3.082-8.337 7.962-8.337zm0 3.325c-2.29 0-3.786 1.942-3.786 5.012 0 3.058 1.485 5 3.786 5 2.29 0 3.786-1.942 3.786-5 0-3.07-1.497-5.012-3.786-5.012zm16.046.726c3.071 0 4.858 2.288 4.858 6.261 0 3.962-1.775 6.25-4.802 6.25-1.786 0-3.127-.848-3.718-2.254h-.079v6.004h-3.964V89.07h3.942v2.166h.078c.614-1.462 1.932-2.344 3.685-2.344zm-1.474 9.42c1.407 0 2.29-1.228 2.29-3.159 0-1.93-.894-3.17-2.29-3.17-1.384 0-2.278 1.25-2.289 3.17.011 1.93.893 3.159 2.29 3.159zm7.526-11.965h3.965v2.723h2.189v2.913h-2.19v5.1c0 .838.447 1.262 1.397 1.262.312 0 .547-.011.781-.056v2.813c-.38.078-.96.145-1.73.145-3.16 0-4.412-.971-4.412-3.36v-5.904H63.49V89.07h1.652v-2.723zm6.477 14.877V89.07h3.953v12.154h-3.953zm1.976-13.136c-1.15 0-2.032-.848-2.032-1.942 0-1.093.882-1.93 2.032-1.93s2.022.837 2.022 1.93c0 1.094-.871 1.942-2.022 1.942zm2.568 13.136V89.07h3.853v2.344h.078c.48-1.562 1.81-2.578 3.473-2.578 1.81 0 3.038.938 3.384 2.59h.078c.469-1.563 1.943-2.59 3.752-2.59 2.379 0 3.998 1.674 3.998 4.14v8.248h-3.964v-7.243c0-1.272-.592-1.93-1.709-1.93-1.072 0-1.742.77-1.742 1.964v7.21h-3.786v-7.288c0-1.217-.603-1.887-1.686-1.887-1.072 0-1.764.793-1.764 1.987v7.187h-3.965zm19.162 0V89.07h3.954v12.154h-3.954zm1.977-13.136c-1.15 0-2.032-.848-2.032-1.942 0-1.093.882-1.93 2.032-1.93s2.021.837 2.021 1.93c0 1.094-.87 1.942-2.021 1.942zm2.356 13.136v-2.098l5.717-7.009v-.078h-5.583V89.07h10.207v2.411l-5.193 6.697v.078h5.382v2.968h-10.53zm15.912-2.544c1.206 0 2.256-.737 2.256-1.82v-.836l-2.211.145c-1.039.078-1.62.558-1.62 1.272 0 .77.637 1.239 1.575 1.239zm-1.407 2.723c-2.256 0-4.087-1.495-4.087-3.694 0-2.277 1.753-3.55 4.902-3.739l2.848-.167v-.692c0-.971-.692-1.507-1.73-1.507-1.073 0-1.754.558-1.866 1.306h-3.562c.112-2.49 2.233-4.13 5.628-4.13 3.25 0 5.405 1.663 5.405 4.107v8.337h-3.853v-1.73h-.078c-.659 1.228-2.144 1.91-3.607 1.91zm9.079-15.056h3.964v2.723h2.189v2.913h-2.19v5.1c0 .838.448 1.262 1.397 1.262.312 0 .547-.011.781-.056v2.813c-.38.078-.96.145-1.73.145-3.16 0-4.411-.971-4.411-3.36v-5.904h-1.653V89.07h1.653v-2.723zm6.476 14.877V89.07h3.953v12.154h-3.953zm1.976-13.136c-1.15 0-2.032-.848-2.032-1.942 0-1.093.882-1.93 2.032-1.93s2.022.837 2.022 1.93c0 1.094-.871 1.942-2.022 1.942zm8.42 13.427c-3.83 0-6.22-2.322-6.22-6.373 0-3.973 2.445-6.362 6.22-6.362 3.797 0 6.22 2.378 6.22 6.362 0 4.062-2.39 6.373-6.22 6.373zm0-2.902c1.351 0 2.211-1.239 2.211-3.46 0-2.187-.86-3.47-2.211-3.47-1.34 0-2.2 1.283-2.2 3.47 0 2.221.838 3.46 2.2 3.46zm6.41 2.611V89.07h3.852v2.288h.078c.625-1.618 1.899-2.522 3.763-2.522 2.714 0 4.222 1.697 4.222 4.587v7.801h-3.954v-6.953c0-1.384-.658-2.21-1.954-2.21-1.262 0-2.043.95-2.043 2.288v6.875h-3.965zm23.617 0h-4.088v-12.8h-4.444V85.12h12.976v3.303h-4.444v12.801zm7.995.29c-3.83 0-6.22-2.32-6.22-6.372 0-3.973 2.445-6.362 6.22-6.362 3.797 0 6.22 2.378 6.22 6.362 0 4.062-2.39 6.373-6.22 6.373zm0-2.901c1.35 0 2.21-1.239 2.21-3.46 0-2.187-.86-3.47-2.21-3.47-1.34 0-2.2 1.283-2.2 3.47 0 2.221.837 3.46 2.2 3.46zm12.26 2.902c-3.83 0-6.22-2.322-6.22-6.373 0-3.973 2.446-6.362 6.22-6.362 3.797 0 6.22 2.378 6.22 6.362 0 4.062-2.39 6.373-6.22 6.373zm0-2.902c1.352 0 2.212-1.239 2.212-3.46 0-2.187-.86-3.47-2.211-3.47-1.34 0-2.2 1.283-2.2 3.47 0 2.221.837 3.46 2.2 3.46zm6.477 2.611V85.12h3.964v16.104h-3.964zm4.388-8.47c0-2.434 2.077-3.974 5.427-3.974 3.317 0 5.383 1.574 5.405 4.085h-3.618c-.033-.87-.726-1.417-1.82-1.417-.972 0-1.597.424-1.597 1.049 0 .48.447.826 1.362 1.015l2.546.514c2.424.513 3.462 1.507 3.462 3.348 0 2.522-2.29 4.14-5.684 4.14-3.551 0-5.606-1.618-5.773-4.106h3.841c.112.904.838 1.44 2 1.44 1.049 0 1.697-.38 1.697-1.028 0-.49-.369-.77-1.318-.97l-2.3-.48c-2.38-.503-3.63-1.753-3.63-3.616zM98.177 125.177c0-3.18 2.513-5.357 6.276-5.357 3.663 0 6.042 1.964 6.042 4.788 0 2.11-1.608 3.705-2.904 4.944l-3.852 3.55v.077h6.957v3.148H98.412v-2.735l6.287-5.781c1.34-1.284 1.831-2.065 1.831-3.07 0-1.026-.87-1.84-2.21-1.84-1.385 0-2.39.948-2.39 2.276v.078h-3.753v-.078zm19.71 11.551c-4.221 0-6.834-3.214-6.834-8.482 0-5.29 2.646-8.437 6.834-8.437 4.176 0 6.812 3.136 6.812 8.426 0 5.257-2.602 8.493-6.812 8.493zm0-3.192c1.597 0 2.646-1.808 2.646-5.29s-1.05-5.245-2.646-5.245c-1.597 0-2.67 1.774-2.67 5.234 0 3.482 1.062 5.301 2.67 5.301zm11.334 2.79v-12.51h-.078l-4.032 2.723v-3.527l4.099-2.79h4.087v16.105h-4.076zm12.82.402c-4.166 0-6.89-1.92-6.89-4.765 0-2.188 1.63-3.817 3.963-4.119v-.078c-1.954-.39-3.316-1.864-3.316-3.683 0-2.466 2.557-4.263 6.242-4.263 3.697 0 6.243 1.797 6.243 4.274 0 1.797-1.352 3.282-3.295 3.672v.078c2.345.313 3.954 1.942 3.954 4.13 0 2.835-2.781 4.754-6.902 4.754zm0-2.812c1.54 0 2.601-.971 2.601-2.255 0-1.283-1.06-2.243-2.602-2.243-1.53 0-2.59.96-2.59 2.243 0 1.284 1.06 2.255 2.59 2.255zm0-7.31c1.283 0 2.21-.86 2.21-1.987 0-1.138-.927-1.998-2.21-1.998-1.274 0-2.2.86-2.2 1.998 0 1.127.926 1.987 2.2 1.987zm-93.033 4.006v-3.265h35.94v3.265h-35.94zm111.085 0v-3.265h35.939v3.265h-35.94z" fill="#FFF" fill-rule="nonzero"/><path d="M37.601 136.293s-.301-.463-.636-1.262a12.04 12.04 0 0 1-.895-3.202 9.334 9.334 0 0 1 .342-4.159c.482-1.433 1.396-2.839 2.921-4.067 2.101 2.447 3.974 5.602 4.692 8.717.706 3.133.258 6.216-2.584 8.84-2.848 2.632-6.477 2.167-9.574.053-3.12-2.102-5.705-5.843-6.979-9.405a9.42 9.42 0 0 1 5.099-.301c1.543.313 2.85.977 3.984 1.678a18.297 18.297 0 0 1 2.65 2.084c.622.604.98 1.024.98 1.024zm-8.384-14.07s-.212-.51-.43-1.344a13.605 13.605 0 0 1-.353-3.31c.091-2.612 1.106-5.666 4.553-7.596 1.69 2.743 3.003 6.188 3.234 9.423.188 3.236-.758 6.38-4.11 8.31-3.356 1.933-6.691.962-9.38-1.606-2.717-2.534-4.628-6.64-5.323-10.358 3.866-.617 6.777 1.064 8.734 2.824a15.46 15.46 0 0 1 2.267 2.49c.533.69.808 1.167.808 1.167zm-5.995-15.242l-.076-.375a7.06 7.06 0 0 1-.12-1.024 14 14 0 0 1 .19-3.32 9.297 9.297 0 0 1 1.686-3.828c.906-1.196 2.198-2.22 4.063-2.89a22.18 22.18 0 0 1 1.378 4.8c.348 1.66.376 3.382.256 4.985-.363 3.22-1.759 6.157-5.402 7.528-3.6 1.358-6.78-.12-9-3.106-1.163-1.465-1.96-3.323-2.61-5.247-.578-1.945-.906-3.99-.95-5.885a9.708 9.708 0 0 1 4.943 1.369c1.355.796 2.362 1.852 3.21 2.88a15.116 15.116 0 0 1 1.835 2.829l.445.93.152.354zm-3.35-16.027s-.03-.554.044-1.412c.04-.43.091-.935.213-1.486.134-.551.313-1.146.552-1.75.485-1.211 1.172-2.456 2.29-3.474 1.131-1.02 2.61-1.803 4.543-2.136.17.782.278 1.598.354 2.429.113.83.171 1.676.169 2.522-.046 1.695-.166 3.378-.624 4.937-.488 1.562-1.126 2.981-2.202 4.128-1.066 1.143-2.508 2.01-4.41 2.37-1.902.36-3.542.055-4.941-.772-1.386-.826-2.59-2.161-3.392-3.824a16.488 16.488 0 0 1-1.655-5.636 26.624 26.624 0 0 1-.195-3.038c.029-1.006.137-1.995.282-2.935 1.94.357 3.437 1.19 4.59 2.212a12.244 12.244 0 0 1 2.697 3.394c.316.58.57 1.151.774 1.679.215.527.407 1.01.54 1.423.271.827.37 1.369.37 1.369zm-.53-16.364s.06-.55.271-1.383c.233-.832.68-1.942 1.344-3.053 1.283-2.237 3.795-4.37 7.704-4.35a18.56 18.56 0 0 1-.071 2.465c-.076.834-.123 1.684-.276 2.518-.143.835-.344 1.66-.61 2.457-.255.798-.506 1.572-.865 2.3-1.457 2.893-3.746 5.175-7.632 5.242-3.855.068-6.365-2.405-7.416-5.98-.268-.89-.499-1.844-.594-2.825-.084-.98-.1-1.994-.053-3.01.057-1.012.13-2.036.339-3.018.212-.98.476-1.934.781-2.832 3.708 1.384 5.287 4.268 6.207 6.775.436 1.255.612 2.42.725 3.281.135.86.146 1.413.146 1.413zm2.316-16.209s.153-.53.506-1.317c.323-.792.982-1.804 1.825-2.788.855-.982 1.95-1.921 3.307-2.527 1.387-.598 3.073-.851 5.006-.537-.268 1.592-.58 3.294-1.16 4.903-.284.806-.646 1.587-1.025 2.339a13.454 13.454 0 0 1-1.233 2.136c-1.943 2.62-4.583 4.476-8.422 3.873-3.81-.598-5.864-3.467-6.284-7.148a17.386 17.386 0 0 1-.122-2.874c.061-.98.238-1.967.452-2.953.442-1.968 1.09-3.918 2.04-5.551a9.33 9.33 0 0 1 3.605 3.58c.8 1.357 1.221 2.788 1.427 4.092.218 1.307.164 2.477.178 3.356-.015.87-.1 1.416-.1 1.416zm4.904-15.626s.982-1.998 2.896-3.724c2.015-1.686 4.986-3.014 8.714-1.847a20.066 20.066 0 0 1-1.918 4.725c-.76 1.544-1.733 2.974-2.905 4.14-.293.291-.598.567-.915.822-.3.261-.606.505-.929.727a8.244 8.244 0 0 1-2.08 1.044c-1.485.49-3.163.546-4.999-.067-1.836-.613-3.124-1.68-3.95-3.077a8.186 8.186 0 0 1-.912-2.315 10.48 10.48 0 0 1-.22-1.297c-.03-.438-.035-.885-.018-1.341.07-1.826.5-3.787 1.165-5.678a25.265 25.265 0 0 1 2.83-5.129c3.139 2.413 3.855 5.66 3.854 8.277.094 2.666-.613 4.74-.613 4.74zm7.111-14.76s.298-.464.859-1.12c.541-.664 1.415-1.478 2.521-2.184 2.203-1.428 5.274-2.418 8.836-.82-1.161 3.12-3.419 6.207-5.92 8.302-1.292 1.027-2.747 1.762-4.316 2.034-1.522.293-3.175.121-4.906-.747-1.731-.865-2.873-2.11-3.517-3.613-.602-1.476-.697-3.197-.42-5.003.473-3.668 2.792-7.397 5.234-10.15 2.832 2.767 3.195 6.098 2.873 8.699-.17 1.3-.505 2.432-.747 3.274-.26.83-.497 1.329-.497 1.329zm173.914 108.298s.358-.42.98-1.024a18.297 18.297 0 0 1 2.65-2.084c1.134-.7 2.442-1.365 3.985-1.678a9.42 9.42 0 0 1 5.098.301c-1.273 3.562-3.858 7.303-6.979 9.405-3.096 2.114-6.726 2.579-9.573-.053-2.843-2.624-3.29-5.707-2.585-8.84.718-3.115 2.591-6.27 4.692-8.717 1.525 1.228 2.439 2.634 2.922 4.067a9.334 9.334 0 0 1 .342 4.16 12.04 12.04 0 0 1-.895 3.201c-.335.8-.637 1.262-.637 1.262zm8.384-14.07s.275-.478.808-1.166a15.46 15.46 0 0 1 2.267-2.49c1.958-1.76 4.868-3.442 8.735-2.825-.695 3.718-2.607 7.824-5.323 10.358-2.69 2.568-6.024 3.539-9.38 1.606-3.353-1.93-4.298-5.074-4.11-8.31.23-3.235 1.543-6.68 3.233-9.423 3.447 1.93 4.462 4.984 4.553 7.597a13.605 13.605 0 0 1-.353 3.309c-.217.833-.43 1.344-.43 1.344zm5.995-15.242l.153-.353c.105-.222.258-.54.445-.931.387-.774.985-1.8 1.833-2.829.85-1.028 1.856-2.084 3.211-2.88a9.708 9.708 0 0 1 4.943-1.369c-.044 1.896-.372 3.94-.95 5.885-.649 1.924-1.447 3.782-2.61 5.247-2.22 2.987-5.399 4.464-9 3.106-3.643-1.371-5.038-4.308-5.402-7.528-.12-1.603-.092-3.326.256-4.985a22.18 22.18 0 0 1 1.379-4.8c1.865.67 3.157 1.694 4.063 2.89a9.297 9.297 0 0 1 1.686 3.829 14 14 0 0 1 .189 3.319 7.06 7.06 0 0 1-.12 1.024l-.076.375zm3.35-16.027s.1-.542.372-1.369c.132-.413.324-.896.54-1.423a14.41 14.41 0 0 1 .773-1.68 12.244 12.244 0 0 1 2.697-3.393c1.153-1.021 2.65-1.855 4.59-2.212.146.94.253 1.929.282 2.935a26.624 26.624 0 0 1-.194 3.038 16.488 16.488 0 0 1-1.655 5.636c-.802 1.663-2.006 2.998-3.392 3.824-1.4.827-3.04 1.132-4.942.772-1.902-.36-3.344-1.227-4.41-2.37-1.076-1.147-1.714-2.566-2.201-4.128-.458-1.559-.579-3.242-.624-4.937-.003-.846.055-1.692.168-2.522.077-.831.185-1.647.354-2.43 1.933.334 3.412 1.117 4.544 2.137 1.117 1.018 1.805 2.263 2.29 3.473.238.605.417 1.2.551 1.751.122.551.172 1.056.213 1.486.075.858.044 1.412.044 1.412zm.53-16.364s.011-.552.147-1.413c.112-.86.289-2.026.724-3.281.92-2.507 2.5-5.391 6.207-6.775.306.898.57 1.851.782 2.832.209.982.281 2.006.339 3.019a23.018 23.018 0 0 1-.053 3.009c-.096.98-.327 1.936-.595 2.824-1.05 3.576-3.56 6.049-7.416 5.981-3.885-.067-6.175-2.35-7.632-5.242-.359-.728-.61-1.502-.864-2.3a16.518 16.518 0 0 1-.61-2.457c-.154-.834-.2-1.684-.276-2.518a18.56 18.56 0 0 1-.071-2.466c3.909-.02 6.42 2.114 7.704 4.351.664 1.11 1.11 2.22 1.343 3.053.212.832.271 1.383.271 1.383zM223.53 58.38s-.085-.545-.1-1.416c.015-.879-.04-2.049.178-3.356.206-1.304.627-2.735 1.427-4.093a9.33 9.33 0 0 1 3.605-3.58c.951 1.634 1.598 3.584 2.04 5.552.215.986.391 1.974.452 2.953.035.988-.001 1.955-.122 2.874-.42 3.68-2.474 6.55-6.284 7.148-3.839.603-6.479-1.253-8.422-3.873-.47-.661-.881-1.38-1.232-2.136-.38-.752-.742-1.533-1.025-2.34-.58-1.608-.892-3.31-1.161-4.902 1.933-.314 3.62-.061 5.006.537 1.358.606 2.452 1.545 3.307 2.527.843.984 1.502 1.996 1.826 2.788.352.786.505 1.317.505 1.317zm-4.904-15.626s-.707-2.074-.613-4.74c0-2.617.716-5.864 3.855-8.277a25.265 25.265 0 0 1 2.829 5.129c.665 1.891 1.096 3.852 1.165 5.678.018.456.013.903-.018 1.34-.047.445-.121.88-.22 1.298a8.186 8.186 0 0 1-.91 2.315c-.827 1.398-2.115 2.464-3.952 3.077-1.836.613-3.513.557-4.998.067a8.244 8.244 0 0 1-2.08-1.044c-.323-.222-.63-.466-.93-.727-.316-.255-.622-.53-.914-.823-1.172-1.165-2.146-2.595-2.906-4.139a20.066 20.066 0 0 1-1.918-4.725c3.728-1.167 6.699.16 8.714 1.847 1.915 1.726 2.896 3.724 2.896 3.724zm-7.111-14.76s-.236-.498-.497-1.328c-.241-.842-.577-1.975-.747-3.274-.322-2.601.042-5.932 2.874-8.7 2.44 2.754 4.76 6.483 5.234 10.151.276 1.806.18 3.527-.42 5.003-.645 1.503-1.787 2.748-3.517 3.613-1.732.868-3.384 1.04-4.907.747-1.569-.272-3.024-1.007-4.316-2.034-2.5-2.095-4.759-5.181-5.92-8.301 3.563-1.599 6.633-.61 8.836.819 1.107.706 1.98 1.52 2.522 2.185.56.655.858 1.12.858 1.12zm-89.007 5.903l2.291 7.172h7.413l-5.997 4.432 2.29 7.172-5.997-4.433-5.996 4.433 2.29-7.172-5.997-4.432h7.413l2.29-7.172zm-16.069 3.513l1.763 5.517h5.702l-4.613 3.41 1.761 5.515-4.613-3.409-4.613 3.41 1.762-5.517-4.613-3.41h5.702l1.762-5.516zm32.446 0l1.762 5.517h5.702l-4.614 3.41 1.763 5.515-4.613-3.409-4.614 3.41 1.762-5.517-4.614-3.41h5.703l1.763-5.516z" fill="#32A7FF"/></g></svg>