<?xml version="1.0" encoding="UTF-8"?>
<svg width="14px" height="12px" viewBox="0 0 14 12" version="1.1" xmlns="http://www.w3.org/2000/svg" xmlns:xlink="http://www.w3.org/1999/xlink">
    <!-- Generator: sketchtool 43.1 (39012) - http://www.bohemiancoding.com/sketch -->
    <title>0564B037-D7A2-471E-A372-806F463DBB0D</title>
    <desc>Created with sketchtool.</desc>
    <defs></defs>
    <g id="Page-1" stroke="none" stroke-width="1" fill="none" fill-rule="evenodd">
        <g id="Landing-Page---Mobile" transform="translate(-271.000000, -5074.000000)" fill="#FFFFFF">
            <g id="Group-3" transform="translate(213.000000, 5064.000000)">
                <g id="twitter" transform="translate(50.000000, 0.000000)">
                    <path d="M20.4347826,13.0029586 L20.4347826,13.3257127 C20.4347826,16.9405594 17.602108,21.1363636 12.4637681,21.1363636 C10.8827404,21.1363636 9.43346509,20.6845078 8.18181818,19.9098978 C8.37944664,19.9098978 8.64295125,19.9744486 8.84057971,19.9744486 C10.1581028,19.9744486 11.3438735,19.5225928 12.3320158,18.8125336 C11.0803689,18.8125336 10.0922266,17.9733728 9.6969697,16.8760086 C9.89459816,16.8760086 10.0263505,16.9405594 10.2239789,16.9405594 C10.4874835,16.9405594 10.7509881,16.8760086 10.9486166,16.8760086 C9.6969697,16.6178053 8.7088274,15.5204411 8.7088274,14.1648736 C8.7088274,14.1648736 8.7088274,14.1648736 8.7088274,14.1003228 C9.10408432,14.2939753 9.49934124,14.4230769 9.96047431,14.4230769 C9.23583663,13.9066703 8.7088274,13.0675094 8.7088274,12.1637977 C8.7088274,11.6473911 8.84057971,11.1955352 9.10408432,10.8082302 C10.4874835,12.4865519 12.5296443,13.5839161 14.9011858,13.6484669 C14.8353096,13.4548144 14.8353096,13.2611619 14.8353096,13.0029586 C14.8353096,11.5182894 16.0869565,10.2272727 17.6679842,10.2272727 C18.458498,10.2272727 19.1831357,10.5500269 19.7101449,11.0664336 C20.3689065,10.9373319 20.9617918,10.7436794 21.4888011,10.4209252 C21.2911726,11.0664336 20.8300395,11.5828402 20.2371542,11.9701452 C20.8300395,11.9055944 21.3570487,11.7764927 21.8181818,11.5182894 C21.4888011,12.0992469 21.027668,12.6156536 20.4347826,13.0029586 L20.4347826,13.0029586 Z"></path>
                </g>
            </g>
        </g>
    </g>
</svg>