<svg width="78" height="42" viewBox="0 0 78 42" xmlns="http://www.w3.org/2000/svg"><title>wsj</title><path d="M27.282 1.65V.175h9.232v1.51c-.261.009-.533.021-.806.025-1.37.022-2.34.652-2.731 1.975a50.77 50.77 0 0 0-.979 3.977c-1.385 6.625-2.75 13.256-4.12 19.886-.932 4.505-1.86 9.009-2.79 13.514-.049.233-.107.464-.171.738h-2.314l-2.322-11.793c-.776-3.934-1.553-7.867-2.441-11.8l-4.755 23.597h-2.267c-.041-.114-.111-.246-.14-.387-1.483-7.515-2.963-15.03-4.447-22.544-.945-4.79-1.895-9.579-2.85-14.366a9.831 9.831 0 0 0-.297-1.132c-.303-.932-.913-1.509-1.92-1.594C.778 1.747.39 1.723 0 1.695V.13l10.401.015h.74v1.518c-.318.046-.653.09-.988.143-.73.112-1.117.45-1.14 1.187-.022.71.037 1.434.166 2.131 1.088 5.956 2.2 11.908 3.307 17.861.395 2.133.794 4.266 1.216 6.534.096-.228.169-.343.191-.466a5692.16 5692.16 0 0 0 2.847-15.561c.058-.314.078-.656.02-.968-.505-2.708-1.028-5.414-1.553-8.12a10.747 10.747 0 0 0-.283-1.136c-.313-1.01-.875-1.456-1.926-1.553-.147-.013-.297-.02-.528-.037V.176h10.967v1.476c-.435.058-.863.09-1.284.173-.8.158-1.129.54-1.28 1.343-.178.93.06 1.818.232 2.708 1.416 7.328 2.845 14.655 4.273 21.982.082.425.176.846.368 1.283.124-.642.257-1.283.375-1.926.989-5.377 1.98-10.756 2.96-16.137.396-2.177.782-4.357 1.141-6.54.07-.418.018-.864-.033-1.29-.099-.82-.625-1.264-1.4-1.413-.487-.092-.984-.123-1.507-.185zm23.153 17.563c2.44 2.264 4.189 4.966 4.88 8.273.594 2.847.718 5.7-.218 8.497-1.163 3.477-3.667 5.365-7.24 5.878-1.938.278-3.856.158-5.696-.539-.742-.281-1.436-.7-2.137-1.082-.36-.196-.688-.45-1.091-.718l-.998 2.134h-.959c-.15-.445-.199-13.237-.05-14.145h1.282c.013.208.033.435.039.662.054 1.894.215 3.773.762 5.599.566 1.884 1.442 3.582 2.98 4.866 1.885 1.574 4.006 1.836 6.275 1.05 1.128-.39 1.907-1.218 2.326-2.317.943-2.47.92-4.965.024-7.448-.8-2.22-2.224-4.016-3.939-5.58-1.12-1.023-2.314-1.964-3.492-2.92-1.505-1.221-2.91-2.532-4.06-4.106-2.023-2.768-2.84-5.856-2.492-9.267.173-1.69.638-3.278 1.618-4.682C39.537 1.528 41.314.473 43.518.12c.147-.023.288-.08.43-.12h2.212c.484.1.974.184 1.454.305 1.256.314 2.403.854 3.397 1.698.146.125.305.235.521.399l1.042-1.97h.902c.135.457.192 13.051.058 14.22h-1.319c-.025-.714-.046-1.404-.076-2.094-.079-1.783-.29-3.549-.803-5.264-.446-1.494-1.093-2.885-2.258-3.968-1.411-1.311-3.096-1.708-4.94-1.314-1.685.36-2.645 1.542-3.01 3.156-.614 2.7-.08 5.161 1.732 7.308 1.086 1.286 2.37 2.349 3.658 3.414 1.32 1.092 2.662 2.16 3.917 3.323zM65.804.188H78v1.473c-.194.015-.38.028-.564.04-.346.022-.698.006-1.034.069-1.008.184-1.546.79-1.637 1.817-.033.368-.03.739-.03 1.107-.003 9.258 0 18.517-.006 27.776 0 1.327-.085 2.649-.492 3.928-.775 2.429-2.37 4.05-4.786 4.834-1.755.57-3.567.82-5.379.43-2.57-.552-4.28-2.203-5.233-4.617-.756-1.914-1.03-3.905-.463-5.93.327-1.168 1.042-2.044 2.21-2.473 1.707-.625 3.267.239 3.675 2.015.2.875.123 1.735-.19 2.563-.398 1.054-1.216 1.656-2.266 1.975-.245.073-.496.128-.733.188.004 2.12 1.313 3.898 3.29 4.43.892.24 1.809.22 2.681-.125.906-.356 1.396-1.1 1.602-1.999.194-.842.325-1.707.373-2.569.066-1.17.032-2.346.032-3.52.002-9.018.003-18.038-.005-27.057a6.93 6.93 0 0 0-.142-1.484c-.149-.667-.599-1.097-1.274-1.243a6.88 6.88 0 0 0-.965-.11c-.275-.018-.552-.004-.86-.004V.188z" fill="#161B2A"/></svg>