<svg width="74" height="35" viewBox="0 0 74 35" xmlns="http://www.w3.org/2000/svg"><title>yodo</title><defs><linearGradient x1="50%" y1="100%" x2="50%" y2="0%" id="a"><stop stop-color="#5D657C" offset="0%"/><stop stop-color="#868D9C" offset="100%"/></linearGradient></defs><g fill="none" fill-rule="evenodd"><path d="M72.531 1.406l.623 13.859-8.966 2.551s-2.042-9.102-1.939-9.17c.104-.07 10.282-7.24 10.282-7.24zm-51.789 16.22l3.448-1.085.344 2.985-1.722 3.566-1.201-.254c-.066 1.042-.28 1.94-.562 2.648-.926 2.33-4.665 4.186-3.437 7.771-6.373-2.586-6.728-8.245-6.728-8.245 3.094 2.263 6.728 0 6.728 0-1.751-1.037-4.194-1.09-6.746-1.337l-1.618 3.051-3.994-1.628-.723-1.595 1.864-.699c-2.167-.767-4.158-2.208-5.587-5.109.582-1.526 1.223-2.813 1.905-3.892a4.194 4.194 0 0 1-.482-1.985c0-1.915 1.194-3.467 2.667-3.467.864 0 1.629.535 2.116 1.36a7.397 7.397 0 0 1 1.074-.41c.646-1.088 1.656-1.793 2.796-1.793 1.345 0 2.514.978 3.11 2.417 1.963.928 3.655 2.443 4.743 3.992a17.16 17.16 0 0 1 2.005 3.71z"/><path d="M3.895 9.844a1.85 1.85 0 0 1 1.583.126 9.77 9.77 0 0 0-.626.467 1.185 1.185 0 0 0-.299-.042c-.652 0-1.18.527-1.18 1.176 0 .097.014.19.036.28-.103.119-.205.24-.304.363-.063.078-.123.158-.185.237a1.848 1.848 0 0 1 .975-2.607zm8.063 1.54c-.005-.026-.012-.05-.019-.075a.8.8 0 0 0 .294-1.038.81.81 0 0 0-1.267-.252.81.81 0 0 0-.15.172 1.56 1.56 0 0 0-1.952 1.506c0 .86.7 1.557 1.563 1.557.64 0 1.19-.384 1.432-.933.255-.011.46-.22.46-.477a.478.478 0 0 0-.36-.46zm.514-1.041c.26.388.411.853.411 1.354 0 1.35-1.1 2.446-2.456 2.446a2.453 2.453 0 0 1-2.456-2.446 2.425 2.425 0 0 1 .523-1.507 2.47 2.47 0 0 1 1.933-.94c.854 0 1.605.435 2.045 1.093z" fill="url(#a)" opacity=".34"/><path d="M38.186 24.825c.733 0 1.327-.957 1.327-3.835s-.594-3.836-1.327-3.836-1.326.654-1.326 3.836c0 3.181.593 3.835 1.326 3.835zm0-11.158c3.04 0 5.506 2.07 5.506 7.323 0 5.252-2.465 7.323-5.506 7.323-3.04 0-5.505-1.896-5.505-7.323 0-5.428 2.464-7.323 5.505-7.323zm12.729 10.57v-6.494a1.372 1.372 0 0 0-1.164-.589c-.917 0-1.243 1.824-1.243 3.836 0 2.011.326 3.836 1.243 3.836.432 0 .844-.154 1.164-.59zm0-9.52v-4.88l3.997-1.507v19.766h-3.997v-.915c-.555.507-1.49 1.132-2.736 1.132-2.096 0-3.799-1.943-3.799-7.323 0-5.38 2.052-7.323 3.668-7.323 1.615 0 2.867 1.05 2.867 1.05zM21.94 11.653a2.104 2.104 0 0 0-.103.253l-.765-.594c.12-.159.215-.31.327-.54.31-.61.502-1.118.7-1.904l.686.444c-.168.667-.231.85-.502 1.516-.207.515-.24.579-.343.825zm.94-4.022l-.518.713c-.422-.404-.708-.618-1.29-.951l.542-.643c.565.317.868.524 1.266.88zm.056-1.777l-.422.547c-.558-.547-.661-.627-1.219-.976l.581-.603c.487.294.829.556 1.171.889l-.031.04c.16.023.382.04.685.04h.286a5.62 5.62 0 0 0-.35-.913l.757-.222c.223.523.223.523.398 1.134h.167c.319 0 .494-.008.71-.04v.603a4.433 4.433 0 0 0 .517-1.721l.916.15c-.04.112-.048.144-.08.255-.087.317-.127.452-.207.69h1.1c.254 0 .477-.016.66-.04v.857a5.235 5.235 0 0 0-.66-.032h-1.403a3.666 3.666 0 0 1-.31.61c.31.017.327.017.494.017h.868c.24 0 .382-.008.558-.032l.39.54c-.064.063-.064.063-.167.198-.207.27-.534.634-.82.92v.214h.469c.247 0 .422-.008.614-.04v.842a4.844 4.844 0 0 0-.614-.032h-.47v1.356c0 .254-.04.437-.127.564-.128.166-.343.222-.86.222-.144 0-.255-.008-.47-.016a2.663 2.663 0 0 0-.168-.825c.239.047.422.063.662.063.135 0 .167-.031.167-.174V9.75h-.383c-.247 0-.414.008-.62.032V8.94c.19.031.357.04.62.04h.383v-.04c0-.215-.008-.334-.032-.477h.183c.191-.142.366-.333.526-.57h-.749c-.255 0-.478.015-.661.04v-.5c-.08.11-.096.134-.2.269-.31-.444-.334-.484-.605-.69.184-.214.255-.301.35-.437-.119-.007-.334-.007-.58-.007h-.662c0 .127-.008.436-.024.92h.637c.32 0 .47-.008.67-.032-.024.286-.024.302-.024.992-.008 1.563-.064 2.483-.176 2.911-.087.357-.318.508-.764.508-.152 0-.247-.008-.447-.024a2.973 2.973 0 0 0-.174-.872c.174.047.358.079.47.079.159 0 .207-.08.254-.476.048-.39.072-1.135.08-2.3h-.566c-.071.888-.127 1.269-.254 1.784-.192.762-.383 1.206-.829 1.928-.2-.325-.342-.476-.653-.722.398-.532.557-.88.733-1.539.215-.801.278-1.468.295-3.157a3.95 3.95 0 0 0-.59.031v-.745zm7.695 5.164c-.152 0-.422.262-.884.873l-.622-.683c.638-.57.909-.793 1.123-.92V8.552h-.43c-.223 0-.327.008-.533.04v-.857c.183.031.334.04.629.04h.581c.224 0 .415-.009.606-.04a8.011 8.011 0 0 0-.032.865v1.713c.024.016.024.016.334.246.502.373.893.452 2.223.452 1.218 0 2.366-.055 3.043-.143-.127.222-.191.468-.247.897-.765.047-1.338.055-2.804.055-1.553 0-1.976-.087-2.533-.523-.327-.262-.359-.278-.454-.278zm-.096-4.189a7.361 7.361 0 0 0-1.282-1.412l.637-.57c.566.499.932.872 1.307 1.372l-.662.61zm2.111.952H35.1v-.428h-2.454v.428zm0 1.016H35.1v-.42h-2.454v.42zm-.008 1.023h2.446v-.428h-2.446v.428zm.733-3.546H32.2c-.374 0-.581.008-.797.032v-.794c.192.032.43.048.82.048h.4a4.32 4.32 0 0 0-.431-.65l.773-.246c.215.293.35.515.534.896h.7c.2-.27.359-.555.502-.888l.853.206c-.144.238-.327.531-.438.682h.502c.366 0 .565-.016.788-.048v.794a8.14 8.14 0 0 0-.788-.032H34.27c-.087.182-.135.294-.199.405h1.147c.359 0 .574-.008.717-.032a6.448 6.448 0 0 0-.032.754V9.75c0 .317.008.531.032.77-.279-.009-.406-.017-.605-.017h-2.772c-.247 0-.383 0-.733.016.016-.182.023-.484.023-.753V7.394c0-.262-.015-.556-.04-.738.192.016.415.024.781.024h.59c.08-.143.144-.278.191-.405zm5.696.976h3.529v-.468h-3.53v.468zm0-1.127h3.529V5.64h-3.53v.484zm.94 2.293h3.464c.35 0 .51-.008.662-.032-.024.159-.032.183-.072.865a20.118 20.118 0 0 1-.16 1.515c-.167 1.024-.414 1.23-1.449 1.23-.191 0-.343-.008-.749-.04a2.198 2.198 0 0 0-.215-.849c.422.072.63.096.9.096.406 0 .51-.064.59-.381.095-.341.167-.912.223-1.658h-.502c-.223.468-.367.714-.63 1.055a5.484 5.484 0 0 1-1.815 1.491c-.24.127-.407.198-.797.35a2.923 2.923 0 0 0-.55-.651c1.171-.413 1.864-.849 2.454-1.547.199-.23.342-.444.47-.698h-.75c-.246.35-.405.523-.668.77-.59.53-1.299.92-2.27 1.237-.144-.278-.231-.389-.51-.667 1.139-.301 1.943-.745 2.461-1.34h-.9c-.486.357-.876.555-1.513.777a2.29 2.29 0 0 0-.51-.666c.988-.294 1.696-.722 2.182-1.341h-.295c-.382 0-.605.008-.868.032.024-.254.032-.42.032-.778V5.68c0-.365-.008-.532-.032-.778.28.025.51.032.948.032h3.394c.446 0 .669-.007.955-.032a5.07 5.07 0 0 0-.04.778v1.507c0 .373.009.532.04.778a9.067 9.067 0 0 0-.876-.032h-2.238c-.143.214-.223.31-.367.484zm21.37 16.408c.732 0 1.326-.957 1.326-3.835s-.594-3.836-1.327-3.836c-.732 0-1.326.654-1.326 3.836 0 3.181.594 3.835 1.326 3.835zM71.85 3.017c-2.646 1.864-7.425 5.231-8.806 6.202.227 1.23 1.067 5.073 1.698 7.897l7.644-2.175-.536-11.924zm2.072 13.025l-7.343 2.09c.195.823.303 1.77.303 2.858 0 5.252-2.465 7.323-5.506 7.323-3.04 0-5.505-1.896-5.505-7.323 0-5.428 2.465-7.323 5.505-7.323.38 0 .749.036 1.107.103l-.029-.13c-.29-1.329-.516-2.392-.673-3.158-.357-1.744-.395-1.926.057-2.225.168-.116 6.788-4.78 10.264-7.229l1.11-.782.71 15.796zm-63.495-2.788a1.56 1.56 0 0 1-1.563-1.557 1.56 1.56 0 0 1 1.952-1.506.805.805 0 0 0-.129.435c0 .448.365.812.816.812.036 0 .07-.007.106-.011a.476.476 0 0 0 .229.896l.02-.002c-.24.549-.79.933-1.431.933zm1.531-1.87a.483.483 0 0 0-.12-.018h-.006a.792.792 0 0 0 .107-.057l.02.074zM22.44 22.246c.47-.734 1.441-2.582 1.121-4.915a7.107 7.107 0 0 1-2.596 1.138 7.277 7.277 0 0 1-.763.124c-.897.094-1.926.035-3.083-.283-.001.417.086.967.434 1.525.57.913 1.71 1.615 3.336 2.072.236.067.481.128.738.184.24.053.49.1.748.143l.065.012zm-11.045 2.446c1.481 1.042 3.122.896 4.284.563-1.106-.289-2.393-.4-3.728-.515a156.64 156.64 0 0 1-.556-.048zm8.964.747c.259-.65.417-1.325.492-2.01-2.222-.556-3.76-1.509-4.58-2.846-1.056-1.726-.477-3.417-.452-3.489l.251-.708.708.26c1.07.396 2.017.527 2.837.499a16.847 16.847 0 0 0-1.486-2.579 11.83 11.83 0 0 0-3.417-3.188c.044.29.069.587.071.892l.002.052c0 2.733-1.75 4.957-3.901 4.957-1.631 0-3.03-1.279-3.611-3.088a5.948 5.948 0 0 1-.19-.769 6.223 6.223 0 0 1-.1-1.1l.001-.052c.001-.094.007-.186.012-.279.02-.384.07-.758.156-1.114.017-.07.038-.136.057-.204-.035.017-.07.032-.105.05a7.37 7.37 0 0 0-.496.284l-.041.024c-.068.043-.135.09-.203.136a8.358 8.358 0 0 0-.637.479c-.39.321-.766.685-1.128 1.096a12.078 12.078 0 0 0-.906 1.161c-.128.184-.253.376-.376.572-.046.073-.093.141-.139.216-.043.071-.085.148-.128.221-.099.17-.198.337-.294.514a22.311 22.311 0 0 0-1.136 2.455c1.297 2.473 3.037 3.74 4.968 4.437.419.15.846.274 1.28.377.43.103.864.186 1.304.254.244.038.488.072.733.103.26.032.52.061.78.088.254.025.509.05.763.072l.63.055c2.202.19 4.28.368 5.913 1.334l1.046.62-1.032.643c-.142.088-3.063 1.87-6.078.767.474 1.522 1.676 3.921 4.698 5.57-.05-1.995 1.223-3.48 2.287-4.72.609-.71 1.184-1.38 1.447-2.042zm-11.455.353c.409-.452.675-.883.839-1.272-1.05-.133-2.126-.328-3.18-.663-.31.08-.609.152-.876.212 1.06 1.146 2.548 1.58 3.217 1.723zM4.899 8.823c-1.335 0-2.42 1.445-2.42 3.221 0 .304.033.598.093.877.113-.16.23-.315.348-.47.062-.08.122-.159.185-.237.1-.123.2-.244.304-.364a1.178 1.178 0 0 1-.037-.279c0-.65.529-1.176 1.181-1.176.104 0 .203.017.3.043a9.938 9.938 0 0 1 .951-.682c.171-.106.346-.208.525-.304-.401-.393-.895-.628-1.43-.628zm2.828 3.448l-.002.052c0 .168.01.334.024.497.185 2.092 1.52 3.72 3.135 3.72 1.742 0 3.159-1.891 3.159-4.217l-.002-.052c-.005-.48-.071-.94-.186-1.369a4.86 4.86 0 0 0-.377-.98 3.923 3.923 0 0 0-.778-1.044c-.514-.486-1.14-.773-1.816-.773-.485 0-.943.15-1.355.413a3.382 3.382 0 0 0-.916.878 4.366 4.366 0 0 0-.48.859l-.02.043a5.172 5.172 0 0 0-.376 1.694c-.005.093-.01.185-.01.279zm21.13 1.68h4.327L27.869 33.2h-4.327l1.646-4.824-1.52-5.3c-.163.252-.28.402-.302.43l-.263.329-.42-.058c-.132-.018-.26-.039-.389-.059a9.257 9.257 0 0 1-.554 2.266c-.354.89-1.038 1.687-1.7 2.458-1.238 1.444-2.408 2.809-1.726 4.802l.526 1.536-1.51-.612c-5.039-2.047-6.553-5.874-7.002-7.77-.188.24-.4.48-.641.717l-.255.25-.355-.041c-.15-.018-3.69-.469-5.308-3.393l-.498-.9 1-.18c-1.584-.93-3.024-2.36-4.13-4.605L0 17.96l.114-.3c.44-1.155 1-2.389 1.698-3.564a5.076 5.076 0 0 1-.447-2.103c0-2.387 1.585-4.33 3.534-4.33.978 0 1.865.491 2.506 1.282.805-1.29 2.065-2.124 3.479-2.124 1.682 0 3.146 1.178 3.885 2.903 1.903 1.004 3.523 2.497 4.577 3.996a18.623 18.623 0 0 1 1.808 3.168c.24-.076.461-.163.664-.256l-.769-2.68h4.233l1.74 8.384 1.835-8.385zm38.5.765v-4.583h-1.23V8.82c1.084 0 1.436-.934 1.436-.934h1.612v6.83h-1.818z" fill="url(#a)"/></g></svg>